0
SECTION
2
HEADER
9
$INSUNITS
70
4
9
$ACADVER
1
AC1014
9
$HANDSEED
5
FFFF
0
ENDSEC
0
SECTION
2
TABLES
0
TABLE
2
VPORT
5
8
100
AcDbSymbolTable
0
ENDTAB
0
TABLE
2
LTYPE
5
5
100
AcDbSymbolTable
0
LTYPE
5
14
100
AcDbSymbolTableRecord
100
AcDbLinetypeTableRecord
2
BYBLOCK
70
0
0
LTYPE
5
15
100
AcDbSymbolTableRecord
100
AcDbLinetypeTableRecord
2
BYLAYER
70
0
0
ENDTAB
0
TABLE
2
LAYER
5
2
100
AcDbSymbolTable
70
2
0
LAYER
5
50
100
AcDbSymbolTableRecord
100
AcDbLayerTableRecord
2
0
70
0
6
CONTINUOUS
0
ENDTAB
0
TABLE
2
STYLE
5
3
100
AcDbSymbolTable
70
1
0
STYLE
5
11
100
AcDbSymbolTableRecord
100
AcDbTextStyleTableRecord
2
STANDARD
70
0
0
ENDTAB
0
TABLE
2
VIEW
5
6
100
AcDbSymbolTable
70
0
0
ENDTAB
0
TABLE
2
UCS
5
7
100
AcDbSymbolTable
70
0
0
ENDTAB
0
TABLE
2
APPID
5
9
100
AcDbSymbolTable
70
2
0
APPID
5
12
100
AcDbSymbolTableRecord
100
AcDbRegAppTableRecord
2
ACAD
70
0
0
ENDTAB
0
TABLE
2
DIMSTYLE
5
A
100
AcDbSymbolTable
70
1
0
ENDTAB
0
TABLE
2
BLOCK_RECORD
5
1
100
AcDbSymbolTable
70
1
0
BLOCK_RECORD
5
1F
100
AcDbSymbolTableRecord
100
AcDbBlockTableRecord
2
*MODEL_SPACE
0
BLOCK_RECORD
5
1B
100
AcDbSymbolTableRecord
100
AcDbBlockTableRecord
2
*PAPER_SPACE
0
ENDTAB
0
ENDSEC
0
SECTION
2
BLOCKS
0
BLOCK
5
20
100
AcDbEntity
100
AcDbBlockBegin
2
*MODEL_SPACE
0
ENDBLK
5
21
100
AcDbEntity
100
AcDbBlockEnd
0
BLOCK
5
1C
100
AcDbEntity
100
AcDbBlockBegin
2
*PAPER_SPACE
0
ENDBLK
5
1D
100
AcDbEntity
100
AcDbBlockEnd
0
ENDSEC
0
SECTION
2
ENTITIES
0
CIRCLE
5
100
100
AcDbEntity
8
0
100
AcDbCircle
10
-311.89499999999998
20
-3.8697400000000353
30
0
40
1.7000000000000002
210
0
220
-0
230
1
0
CIRCLE
5
101
100
AcDbEntity
8
0
100
AcDbCircle
10
-109.89499999999995
20
-3.8697400000000353
30
0
40
1.7000000000000002
210
0
220
-0
230
1
0
CIRCLE
5
102
100
AcDbEntity
8
0
100
AcDbCircle
10
-7.09415
20
-106.12
30
0
40
1.7000000000000002
210
0
220
-0
230
1
0
CIRCLE
5
103
100
AcDbEntity
8
0
100
AcDbCircle
10
-7.0941499999999991
20
-3.8697400000000353
30
0
40
1.7000000000000002
210
0
220
-0
230
1
0
CIRCLE
5
104
100
AcDbEntity
8
0
100
AcDbCircle
10
-210.89499999999998
20
-3.8697400000000353
30
0
40
1.7000000000000002
210
0
220
-0
230
1
0
CIRCLE
5
105
100
AcDbEntity
8
0
100
AcDbCircle
10
-311.89499999999998
20
-106.12
30
0
40
1.7000000000000002
210
0
220
-0
230
1
0
CIRCLE
5
106
100
AcDbEntity
8
0
100
AcDbCircle
10
-210.89499999999998
20
-106.12
30
0
40
1.1000000000000001
210
0
220
-0
230
1
0
CIRCLE
5
107
100
AcDbEntity
8
0
100
AcDbCircle
10
-109.89499999999995
20
-106.12
30
0
40
1.1000000000000001
210
0
220
-0
230
1
0
LWPOLYLINE
5
108
100
AcDbEntity
8
0
100
AcDbPolyline
90
8
70
1
43
0.0
10
-11.971334600000006
20
-23.364316000000045
42
-0.41421356237309631
10
-12.471334600000006
20
-23.864316000000045
10
-25.471334600000013
20
-23.864316000000045
42
-0.41421356237309503
10
-25.971334600000013
20
-23.364316000000045
10
-25.97133460000002
20
-10.364316000000038
42
-0.41421356237309503
10
-25.471334600000013
20
-9.8643160000000307
10
-12.471334600000006
20
-9.8643160000000378
42
-0.41421356237309243
10
-11.971334600000006
20
-10.364316000000038
0
LWPOLYLINE
5
109
100
AcDbEntity
8
0
100
AcDbPolyline
90
8
70
1
43
0.0
10
-185.80258459999999
20
-42.414316000000056
42
-0.41421356237307422
10
-186.30258460000005
20
-42.914316000000056
10
-199.30258460000005
20
-42.914316000000042
42
-0.41421356237312623
10
-199.80258460000005
20
-42.414316000000056
10
-199.80258460000005
20
-29.414316000000049
42
-0.41421356237304563
10
-199.30258460000005
20
-28.914316000000049
10
-186.30258460000005
20
-28.914316000000049
42
-0.41421356237313145
10
-185.80258460000005
20
-29.414316000000049
0
LWPOLYLINE
5
110
100
AcDbEntity
8
0
100
AcDbPolyline
90
8
70
1
43
0.0
10
-295.34008460000001
20
-61.464316000000032
42
-0.4142135623730222
10
-295.84008460000001
20
-61.964316000000032
10
-308.84008460000001
20
-61.964316000000039
42
-0.41421356237313667
10
-309.34008460000001
20
-61.464316000000032
10
-309.34008460000007
20
-48.464316000000025
42
-0.41421356237307422
10
-308.84008460000001
20
-47.964316000000025
10
-295.84008460000001
20
-47.964316000000039
42
-0.41421356237312623
10
-295.34008460000001
20
-48.464316000000025
0
LWPOLYLINE
5
111
100
AcDbEntity
8
0
100
AcDbPolyline
90
8
70
1
43
0.0
10
-128.65258460000004
20
-42.414316000000056
10
-128.65258460000004
20
-29.414316000000049
42
0.41421356237309243
10
-129.15258460000004
20
-28.914316000000042
10
-142.15258460000001
20
-28.914316000000049
42
0.41421356237310542
10
-142.65258460000007
20
-29.414316000000049
10
-142.65258460000001
20
-42.414316000000056
42
0.41421356237310025
10
-142.15258460000001
20
-42.914316000000028
10
-129.15258460000004
20
-42.914316000000056
42
0.41421356237310542
0
LWPOLYLINE
5
112
100
AcDbEntity
8
0
100
AcDbPolyline
90
8
70
1
43
0.0
10
-161.99008460000002
20
-99.564316000000034
42
-0.4142135623730846
10
-162.49008460000005
20
-100.06431600000005
10
-175.49008460000005
20
-100.06431600000002
42
-0.4142135623730846
10
-175.99008460000005
20
-99.564316000000034
10
-175.99008459999999
20
-86.564316000000048
42
-0.41421356237310542
10
-175.49008460000005
20
-86.064316000000048
10
-162.49008460000005
20
-86.064316000000019
42
-0.41421356237310542
10
-161.99008460000005
20
-86.564316000000048
0
LWPOLYLINE
5
113
100
AcDbEntity
8
0
100
AcDbPolyline
90
8
70
1
43
0.0
10
-71.502584600000006
20
-42.414316000000056
42
-0.41421356237310542
10
-72.002584600000006
20
-42.914316000000056
10
-85.002584600000006
20
-42.914316000000042
42
-0.41421356237310542
10
-85.50258460000002
20
-42.414316000000056
10
-85.50258460000002
20
-29.414316000000049
42
-0.41421356237310542
10
-85.002584600000006
20
-28.914316000000049
10
-72.002584600000006
20
-28.914316000000046
42
-0.41421356237309764
10
-71.502584600000006
20
-29.414316000000049
0
LWPOLYLINE
5
114
100
AcDbEntity
8
0
100
AcDbPolyline
90
8
70
1
43
0.0
10
-295.34008460000001
20
-42.414316000000056
42
-0.4142135623730222
10
-295.84008460000001
20
-42.914316000000056
10
-308.84008460000001
20
-42.914316000000063
42
-0.41421356237313667
10
-309.34008460000001
20
-42.414316000000056
10
-309.34008460000007
20
-29.414316000000049
42
-0.41421356237307683
10
-308.84008460000001
20
-28.914316000000049
10
-295.84008460000001
20
-28.914316000000035
42
-0.41421356237310025
10
-295.34008460000001
20
-29.414316000000049
0
LWPOLYLINE
5
115
100
AcDbEntity
8
0
100
AcDbPolyline
90
8
70
1
43
0.0
10
-255.94583459999998
20
-60.464316000000053
42
-0.41421356237307422
10
-256.44583460000001
20
-60.964316000000053
10
-262.44583460000007
20
-60.964316000000061
42
-0.41421356237313667
10
-262.94583460000007
20
-60.464316000000053
10
-262.94583460000007
20
-46.464316000000032
42
-0.41421356237307422
10
-262.44583460000007
20
-45.964316000000032
10
-256.44583460000001
20
-45.964316000000025
42
-0.41421356237313667
10
-255.94583460000001
20
-46.464316000000032
0
LWPOLYLINE
5
116
100
AcDbEntity
8
0
100
AcDbPolyline
90
8
70
1
43
0.0
10
-109.60258460000003
20
-42.414316000000056
42
-0.41421356237310542
10
-110.10258460000003
20
-42.914316000000056
10
-123.1025846
20
-42.914316000000071
42
-0.41421356237310025
10
-123.6025846
20
-42.414316000000056
10
-123.6025846
20
-29.414316000000049
42
-0.41421356237310542
10
-123.1025846
20
-28.914316000000049
10
-110.10258460000003
20
-28.914316000000046
42
-0.41421356237309243
10
-109.60258460000003
20
-29.414316000000049
0
LWPOLYLINE
5
117
100
AcDbEntity
8
0
100
AcDbPolyline
90
8
70
1
43
0.0
10
-52.452584600000023
20
-42.414316000000056
10
-52.452584600000023
20
-29.414316000000049
42
0.41421356237309764
10
-52.95258460000003
20
-28.914316000000042
10
-65.952584600000037
20
-28.914316000000049
42
0.41421356237309764
10
-66.452584600000009
20
-29.414316000000049
10
-66.452584600000037
20
-42.414316000000056
42
0.41421356237310542
10
-65.952584600000037
20
-42.914316000000028
10
-52.95258460000003
20
-42.914316000000056
42
0.41421356237310542
0
LWPOLYLINE
5
118
100
AcDbEntity
8
0
100
AcDbPolyline
90
8
70
1
43
0.0
10
-147.70258460000002
20
-42.414316000000056
42
-0.41421356237310542
10
-148.20258460000002
20
-42.914316000000056
10
-161.20258460000002
20
-42.914316000000042
42
-0.41421356237312623
10
-161.70258460000002
20
-42.414316000000056
10
-161.70258460000002
20
-29.414316000000049
42
-0.41421356237304563
10
-161.20258460000002
20
-28.914316000000049
10
-148.20258460000002
20
-28.914316000000046
42
-0.41421356237309243
10
-147.70258460000002
20
-29.414316000000049
0
LWPOLYLINE
5
119
100
AcDbEntity
8
0
100
AcDbPolyline
90
8
70
1
43
0.0
10
-282.20308460000007
20
-98.564316000000048
42
-0.41421356237310542
10
-282.70308460000001
20
-99.064316000000048
10
-288.70308460000001
20
-99.064316000000048
42
-0.41421356237313667
10
-289.20308460000001
20
-98.564316000000048
10
-289.20308460000001
20
-84.564316000000048
42
-0.41421356237313667
10
-288.70308460000001
20
-84.064316000000048
10
-282.70308460000001
20
-84.064316000000034
42
-0.41421356237310542
10
-282.20308460000001
20
-84.564316000000048
0
LWPOLYLINE
5
120
100
AcDbEntity
8
0
100
AcDbPolyline
90
8
70
1
43
0.0
10
-23.090084600000012
20
-100.06431600000002
42
-0.41421356237307422
10
-23.590084600000012
20
-99.564316000000034
10
-23.590084600000001
20
-86.564316000000048
42
-0.41421356237310542
10
-23.090084600000012
20
-86.064316000000048
10
-10.09008460000004
20
-86.064316000000019
42
-0.41421356237310542
10
-9.5900846000000399
20
-86.564316000000048
10
-9.5900846000000328
20
-99.564316000000034
42
-0.41421356237307422
10
-10.09008460000004
20
-100.06431600000005
0
LWPOLYLINE
5
121
100
AcDbEntity
8
0
100
AcDbPolyline
90
8
70
1
43
0.0
10
-59.596334600000048
20
-23.364316000000045
42
-0.41421356237309764
10
-60.096334600000034
20
-23.864316000000045
10
-73.096334600000006
20
-23.864316000000048
42
-0.41421356237309764
10
-73.596334600000006
20
-23.364316000000045
10
-73.596334600000006
20
-10.364316000000038
42
-0.41421356237310542
10
-73.096334600000006
20
-9.8643160000000307
10
-60.096334600000034
20
-9.8643160000000343
42
-0.41421356237309764
10
-59.596334600000034
20
-10.364316000000038
0
LWPOLYLINE
5
122
100
AcDbEntity
8
0
100
AcDbPolyline
90
8
70
1
43
0.0
10
-181.04008460000003
20
-99.564316000000034
42
-0.41421356237309503
10
-181.54008460000003
20
-100.06431600000005
10
-194.5400846
20
-100.06431600000005
42
-0.41421356237309503
10
-195.0400846
20
-99.564316000000034
10
-195.0400846
20
-86.564316000000048
42
-0.41421356237313667
10
-194.5400846
20
-86.064316000000048
10
-181.54008460000003
20
-86.064316000000048
42
-0.41421356237313667
10
-181.04008460000003
20
-86.564316000000048
0
LWPOLYLINE
5
123
100
AcDbEntity
8
0
100
AcDbPolyline
90
8
70
1
43
0.0
10
-104.84008460000001
20
-99.564316000000034
42
-0.41421356237307422
10
-105.34008460000003
20
-100.06431600000005
10
-118.34008460000004
20
-100.06431600000005
42
-0.41421356237307422
10
-118.84008460000004
20
-99.564316000000034
10
-118.84008460000004
20
-86.564316000000048
42
-0.41421356237309503
10
-118.34008460000004
20
-86.064316000000048
10
-105.34008460000003
20
-86.064316000000048
42
-0.41421356237309503
10
-104.84008460000001
20
-86.564316000000048
0
LWPOLYLINE
5
124
100
AcDbEntity
8
0
100
AcDbPolyline
90
8
70
1
43
0.0
10
-131.03383460000001
20
-23.364316000000045
42
-0.41421356237310542
10
-131.53383460000001
20
-23.864316000000045
10
-144.53383460000003
20
-23.864316000000048
42
-0.41421356237309243
10
-145.03383460000006
20
-23.364316000000045
10
-145.03383460000006
20
-10.364316000000038
42
-0.41421356237309631
10
-144.53383460000003
20
-9.8643160000000307
10
-131.53383460000001
20
-9.864316000000029
42
-0.41421356237309631
10
-131.03383460000001
20
-10.364316000000038
0
LWPOLYLINE
5
125
100
AcDbEntity
8
0
100
AcDbPolyline
90
8
70
1
43
0.0
10
-171.51508460000002
20
-80.514316000000036
42
-0.4142135623730534
10
-172.01508460000002
20
-81.014316000000051
10
-185.01508459999999
20
-81.014316000000051
42
-0.41421356237313667
10
-185.51508460000002
20
-80.514316000000036
10
-185.51508460000005
20
-67.514316000000036
42
-0.41421356237307422
10
-185.01508459999999
20
-67.014316000000036
10
-172.01508460000002
20
-67.014316000000036
42
-0.41421356237313667
10
-171.51508460000002
20
-67.514316000000036
0
LWPOLYLINE
5
126
100
AcDbEntity
8
0
100
AcDbPolyline
90
8
70
1
43
0.0
10
-264.3838346
20
-61.464316000000032
42
-0.41421356237307422
10
-264.88383460000006
20
-61.964316000000032
10
-277.88383460000006
20
-61.964316000000025
42
-0.41421356237312623
10
-278.38383460000006
20
-61.464316000000032
10
-278.3838346
20
-48.464316000000025
42
-0.4142135623730222
10
-277.88383460000006
20
-47.964316000000025
10
-264.88383460000006
20
-47.964316000000018
42
-0.41421356237313667
10
-264.38383460000006
20
-48.464316000000025
0
LWPOLYLINE
5
127
100
AcDbEntity
8
0
100
AcDbPolyline
90
8
70
1
43
0.0
10
-271.52758460000001
20
-80.514316000000036
42
-0.4142135623730534
10
-272.02758460000001
20
-81.014316000000051
10
-285.02758460000001
20
-81.014316000000065
42
-0.41421356237310542
10
-285.52758460000001
20
-80.514316000000036
10
-285.52758460000001
20
-67.514316000000036
42
-0.4142135623730222
10
-285.02758460000001
20
-67.014316000000036
10
-272.02758460000001
20
-67.014316000000036
42
-0.41421356237313667
10
-271.52758460000001
20
-67.514316000000036
0
LWPOLYLINE
5
128
100
AcDbEntity
8
0
100
AcDbPolyline
90
8
70
1
43
0.0
10
-157.2275846
20
-61.464316000000032
10
-157.2275846
20
-48.464316000000025
42
0.41421356237310025
10
-157.72758460000003
20
-47.964316000000053
10
-170.72758460000003
20
-47.964316000000025
42
0.4142135623730222
10
-171.22758460000003
20
-48.464316000000025
10
-171.22758460000003
20
-61.464316000000032
42
0.41421356237312623
10
-170.72758460000003
20
-61.964316000000039
10
-157.72758460000003
20
-61.964316000000032
42
0.41421356237310542
0
LWPOLYLINE
5
129
100
AcDbEntity
8
0
100
AcDbPolyline
90
8
70
1
43
0.0
10
-190.56508460000003
20
-80.514316000000036
42
-0.4142135623730534
10
-191.06508460000003
20
-81.014316000000051
10
-204.06508460000003
20
-81.014316000000065
42
-0.41421356237310542
10
-204.56508460000006
20
-80.514316000000036
10
-204.56508460000003
20
-67.514316000000036
42
-0.4142135623730222
10
-204.06508460000003
20
-67.014316000000036
10
-191.06508460000003
20
-67.014316000000036
42
-0.41421356237313667
10
-190.56508460000003
20
-67.514316000000036
0
LWPOLYLINE
5
130
100
AcDbEntity
8
0
100
AcDbPolyline
90
8
70
1
43
0.0
10
-14.35258460000002
20
-80.514316000000036
42
-0.41421356237310414
10
-14.852584600000007
20
-81.014316000000051
10
-27.852584600000014
20
-81.014316000000051
42
-0.41421356237310542
10
-28.352584600000014
20
-80.514316000000036
10
-28.352584600000018
20
-67.514316000000036
42
-0.41421356237309764
10
-27.852584600000014
20
-67.014316000000036
10
-14.852584600000007
20
-67.014316000000036
42
-0.41421356237309631
10
-14.352584600000007
20
-67.514316000000036
0
LWPOLYLINE
5
131
100
AcDbEntity
8
0
100
AcDbPolyline
90
8
70
1
43
0.0
10
-223.90258460000007
20
-42.414316000000056
42
-0.4142135623730222
10
-224.40258460000001
20
-42.914316000000056
10
-237.40258460000004
20
-42.914316000000063
42
-0.41421356237313667
10
-237.90258460000004
20
-42.414316000000056
10
-237.90258460000007
20
-29.414316000000049
42
-0.41421356237307683
10
-237.40258460000004
20
-28.914316000000049
10
-224.40258460000001
20
-28.914316000000035
42
-0.41421356237310025
10
-223.90258460000001
20
-29.414316000000049
0
LWPOLYLINE
5
132
100
AcDbEntity
8
0
100
AcDbPolyline
90
8
70
1
43
0.0
10
-100.07758460000002
20
-61.464316000000032
42
-0.41421356237310542
10
-100.57758460000002
20
-61.964316000000032
10
-113.57758460000002
20
-61.964316000000046
42
-0.41421356237310025
10
-114.07758460000004
20
-61.464316000000032
10
-114.07758460000004
20
-48.464316000000025
42
-0.41421356237310542
10
-113.57758460000002
20
-47.964316000000025
10
-100.57758460000002
20
-47.964316000000011
42
-0.41421356237310025
10
-100.07758460000002
20
-48.464316000000025
0
LWPOLYLINE
5
133
100
AcDbEntity
8
0
100
AcDbPolyline
90
8
70
1
43
0.0
10
-75.4775846
20
-61.964316000000032
42
-0.41421356237310542
10
-75.9775846
20
-61.464316000000032
10
-75.9775846
20
-48.464316000000025
42
-0.41421356237310542
10
-75.4775846
20
-47.964316000000025
10
-62.477584600000036
20
-47.964316000000025
42
-0.41421356237310542
10
-61.977584600000036
20
-48.464316000000025
10
-61.977584600000036
20
-61.464316000000032
42
-0.41421356237310542
10
-62.477584600000036
20
-61.964316000000032
0
LWPOLYLINE
5
134
100
AcDbEntity
8
0
100
AcDbPolyline
90
8
70
1
43
0.0
10
-142.94008460000001
20
-99.564316000000034
10
-142.94008460000001
20
-86.564316000000048
42
0.41421356237309503
10
-143.44008460000003
20
-86.064316000000048
10
-156.44008460000003
20
-86.064316000000048
42
0.41421356237309503
10
-156.94008460000003
20
-86.564316000000048
10
-156.94008460000003
20
-99.564316000000034
42
0.41421356237307422
10
-156.44008460000003
20
-100.06431600000005
10
-143.44008460000003
20
-100.06431600000005
42
0.41421356237307422
0
LWPOLYLINE
5
135
100
AcDbEntity
8
0
100
AcDbPolyline
90
8
70
1
43
0.0
10
-202.47133460000003
20
-23.364316000000045
42
-0.41421356237304563
10
-202.97133460000003
20
-23.864316000000045
10
-215.97133460000003
20
-23.864316000000059
42
-0.41421356237310025
10
-216.47133460000003
20
-23.364316000000045
10
-216.47133460000006
20
-10.364316000000038
42
-0.41421356237312495
10
-215.97133460000003
20
-9.8643160000000307
10
-202.97133460000003
20
-9.8643160000000503
42
-0.41421356237312495
10
-202.47133460000003
20
-10.364316000000038
0
LWPOLYLINE
5
136
100
AcDbEntity
8
0
100
AcDbPolyline
90
8
70
1
43
0.0
10
-184.53383460000001
20
-22.364316000000031
42
-0.41421356237304563
10
-185.03383460000003
20
-22.864316000000031
10
-191.03383460000003
20
-22.864316000000045
42
-0.41421356237310025
10
-191.53383460000003
20
-22.364316000000031
10
-191.53383460000003
20
-8.3643160000000449
42
-0.41421356237310153
10
-191.03383460000003
20
-7.8643160000000378
10
-185.03383460000003
20
-7.8643160000000272
42
-0.41421356237310153
10
-184.53383460000001
20
-8.3643160000000449
0
LWPOLYLINE
5
137
100
AcDbEntity
8
0
100
AcDbPolyline
90
8
70
1
43
0.0
10
-219.14008459999997
20
-99.564316000000034
42
-0.4142135623730846
10
-219.64008460000002
20
-100.06431600000005
10
-232.64008460000002
20
-100.06431600000005
42
-0.41421356237309503
10
-233.14008460000002
20
-99.564316000000034
10
-233.14008460000002
20
-86.564316000000048
42
-0.41421356237313667
10
-232.64008460000002
20
-86.064316000000048
10
-219.64008460000002
20
-86.064316000000019
42
-0.41421356237310542
10
-219.14008460000002
20
-86.564316000000048
0
LWPOLYLINE
5
138
100
AcDbEntity
8
0
100
AcDbPolyline
90
8
70
1
43
0.0
10
-76.265084600000023
20
-80.514316000000036
42
-0.41421356237310542
10
-76.765084600000009
20
-81.014316000000051
10
-89.765084600000051
20
-81.014316000000051
42
-0.41421356237309503
10
-90.265084600000051
20
-80.514316000000036
10
-90.265084600000051
20
-67.514316000000036
42
-0.41421356237310542
10
-89.765084600000051
20
-67.014316000000036
10
-76.765084600000009
20
-67.014316000000036
42
-0.41421356237310542
10
-76.265084600000009
20
-67.514316000000036
0
LWPOLYLINE
5
139
100
AcDbEntity
8
0
100
AcDbPolyline
90
8
70
1
43
0.0
10
-166.75258460000003
20
-42.414316000000056
10
-166.75258460000003
20
-29.414316000000049
42
0.41421356237313145
10
-167.25258460000003
20
-28.914316000000042
10
-180.25258460000003
20
-28.914316000000049
42
0.41421356237304563
10
-180.75258460000003
20
-29.414316000000049
10
-180.75258460000003
20
-42.414316000000056
42
0.41421356237312623
10
-180.25258460000003
20
-42.914316000000028
10
-167.25258460000003
20
-42.914316000000056
42
0.41421356237307422
0
LWPOLYLINE
5
140
100
AcDbEntity
8
0
100
AcDbPolyline
90
8
70
1
43
0.0
10
-152.46508460000004
20
-80.514316000000036
42
-0.41421356237309503
10
-152.96508460000007
20
-81.014316000000051
10
-165.96508460000001
20
-81.014316000000065
42
-0.41421356237310542
10
-166.46508460000004
20
-80.514316000000036
10
-166.46508460000001
20
-67.514316000000036
42
-0.4142135623730222
10
-165.96508460000001
20
-67.014316000000036
10
-152.96508460000007
20
-67.014316000000022
42
-0.41421356237310025
10
-152.46508460000004
20
-67.514316000000036
0
LWPOLYLINE
5
141
100
AcDbEntity
8
0
100
AcDbPolyline
90
8
70
1
43
0.0
10
-209.61508460000005
20
-80.514316000000036
10
-209.61508460000005
20
-67.514316000000036
42
0.41421356237313667
10
-210.11508460000005
20
-67.014316000000036
10
-223.11508460000005
20
-67.014316000000036
42
0.4142135623730222
10
-223.61508460000007
20
-67.514316000000036
10
-223.61508460000007
20
-80.514316000000036
42
0.41421356237310542
10
-223.11508460000005
20
-81.014316000000051
10
-210.11508460000005
20
-81.014316000000051
42
0.4142135623730534
0
LWPOLYLINE
5
142
100
AcDbEntity
8
0
100
AcDbPolyline
90
8
70
1
43
0.0
10
-257.24008460000005
20
-23.364316000000045
42
-0.41421356237304563
10
-257.74008460000005
20
-23.864316000000045
10
-270.74008460000005
20
-23.864316000000045
42
-0.41421356237313145
10
-271.24008460000005
20
-23.364316000000045
10
-271.24008460000005
20
-10.364316000000038
42
-0.41421356237313534
10
-270.74008460000005
20
-9.8643160000000307
10
-257.74008460000005
20
-9.8643160000000503
42
-0.41421356237312495
10
-257.24008460000005
20
-10.364316000000038
0
LWPOLYLINE
5
143
100
AcDbEntity
8
0
100
AcDbPolyline
90
8
70
1
43
0.0
10
-250.09633460000001
20
-42.414316000000056
42
-0.41421356237307422
10
-250.59633460000003
20
-42.914316000000056
10
-263.59633460000003
20
-42.914316000000042
42
-0.41421356237312623
10
-264.09633460000003
20
-42.414316000000056
10
-264.09633460000003
20
-29.414316000000049
42
-0.41421356237304563
10
-263.59633460000003
20
-28.914316000000049
10
-250.59633460000003
20
-28.914316000000049
42
-0.41421356237313145
10
-250.09633460000003
20
-29.414316000000049
0
LWPOLYLINE
5
144
100
AcDbEntity
8
0
100
AcDbPolyline
90
8
70
1
43
0.0
10
-21.496334600000008
20
-42.414316000000056
42
-0.41421356237309764
10
-21.996334600000012
20
-42.914316000000056
10
-34.996334600000019
20
-42.914316000000042
42
-0.41421356237309764
10
-35.496334600000019
20
-42.414316000000056
10
-35.496334600000019
20
-29.414316000000049
42
-0.41421356237309503
10
-34.996334600000019
20
-28.914316000000049
10
-21.996334600000012
20
-28.914316000000049
42
-0.41421356237309503
10
-21.496334600000012
20
-29.414316000000049
0
LWPOLYLINE
5
145
100
AcDbEntity
8
0
100
AcDbPolyline
90
8
70
1
43
0.0
10
-47.69008460000002
20
-99.564316000000034
42
-0.41421356237307422
10
-48.190084600000027
20
-100.06431600000005
10
-61.190084600000034
20
-100.06431600000002
42
-0.41421356237310542
10
-61.690084600000034
20
-99.564316000000034
10
-61.69008460000002
20
-86.564316000000048
42
-0.41421356237310542
10
-61.190084600000034
20
-86.064316000000048
10
-48.190084600000027
20
-86.064316000000048
42
-0.41421356237310542
10
-47.690084600000027
20
-86.564316000000048
0
LWPOLYLINE
5
146
100
AcDbEntity
8
0
100
AcDbPolyline
90
8
70
1
43
0.0
10
-279.8218346000001
20
-60.464316000000053
42
-0.4142135623730222
10
-280.32183460000005
20
-60.964316000000053
10
-286.32183460000005
20
-60.964316000000061
42
-0.41421356237313667
10
-286.82183460000005
20
-60.464316000000053
10
-286.8218346000001
20
-46.464316000000032
42
-0.41421356237307422
10
-286.32183460000005
20
-45.964316000000032
10
-280.32183460000005
20
-45.964316000000039
42
-0.41421356237312623
10
-279.82183460000005
20
-46.464316000000032
0
LWPOLYLINE
5
147
100
AcDbEntity
8
0
100
AcDbPolyline
90
8
70
1
43
0.0
10
-84.533834600000006
20
-22.364316000000031
10
-84.533834600000006
20
-8.3643160000000449
42
0.4142135623731048
10
-85.03383460000002
20
-7.8643160000000378
10
-91.033834600000034
20
-7.8643160000000378
42
0.4142135623730937
10
-91.533834600000006
20
-8.3643160000000449
10
-91.533834600000034
20
-22.364316000000031
42
0.41421356237309243
10
-91.033834600000034
20
-22.864316000000038
10
-85.03383460000002
20
-22.864316000000031
42
0.41421356237310542
0
LWPOLYLINE
5
148
100
AcDbEntity
8
0
100
AcDbPolyline
90
8
70
1
43
0.0
10
-233.42758460000005
20
-61.464316000000032
42
-0.4142135623730222
10
-233.92758460000005
20
-61.964316000000032
10
-246.92758460000005
20
-61.964316000000039
42
-0.41421356237313667
10
-247.42758460000005
20
-61.464316000000032
10
-247.42758460000007
20
-48.464316000000025
42
-0.41421356237307422
10
-246.92758460000005
20
-47.964316000000025
10
-233.92758460000005
20
-47.964316000000039
42
-0.41421356237312623
10
-233.42758460000002
20
-48.464316000000025
0
LWPOLYLINE
5
149
100
AcDbEntity
8
0
100
AcDbPolyline
90
8
70
1
43
0.0
10
-119.12758460000003
20
-61.464316000000032
42
-0.41421356237310542
10
-119.62758460000003
20
-61.964316000000032
10
-132.62758460000001
20
-61.964316000000046
42
-0.41421356237310025
10
-133.12758460000001
20
-61.464316000000032
10
-133.12758460000001
20
-48.464316000000025
42
-0.41421356237310542
10
-132.62758460000001
20
-47.964316000000025
10
-119.62758460000003
20
-47.964316000000011
42
-0.41421356237310025
10
-119.12758460000003
20
-48.464316000000025
0
LWPOLYLINE
5
150
100
AcDbEntity
8
0
100
AcDbPolyline
90
8
70
1
43
0.0
10
-176.27758460000001
20
-61.464316000000032
10
-176.27758460000001
20
-48.464316000000025
42
0.41421356237313667
10
-176.77758460000004
20
-47.964316000000053
10
-189.77758460000004
20
-47.964316000000025
42
0.4142135623730222
10
-190.27758460000004
20
-48.464316000000025
10
-190.27758460000004
20
-61.464316000000032
42
0.41421356237312623
10
-189.77758460000004
20
-61.964316000000039
10
-176.77758460000004
20
-61.964316000000032
42
0.41421356237307422
0
LWPOLYLINE
5
151
100
AcDbEntity
8
0
100
AcDbPolyline
90
8
70
1
43
0.0
10
-214.37758460000003
20
-61.464316000000032
42
-0.4142135623730222
10
-214.87758460000003
20
-61.964316000000032
10
-227.87758460000003
20
-61.964316000000039
42
-0.41421356237313667
10
-228.37758460000003
20
-61.464316000000032
10
-228.37758460000006
20
-48.464316000000025
42
-0.41421356237307422
10
-227.87758460000003
20
-47.964316000000025
10
-214.87758460000003
20
-47.964316000000039
42
-0.41421356237312623
10
-214.37758460000001
20
-48.464316000000025
0
LWPOLYLINE
5
152
100
AcDbEntity
8
0
100
AcDbPolyline
90
8
70
1
43
0.0
10
-276.29008460000011
20
-42.414316000000056
42
-0.4142135623730222
10
-276.79008460000006
20
-42.914316000000056
10
-289.79008460000006
20
-42.914316000000063
42
-0.41421356237313667
10
-290.29008460000006
20
-42.414316000000056
10
-290.29008460000011
20
-29.414316000000049
42
-0.41421356237307683
10
-289.79008460000006
20
-28.914316000000049
10
-276.79008460000006
20
-28.914316000000035
42
-0.41421356237310025
10
-276.29008460000006
20
-29.414316000000049
0
LWPOLYLINE
5
153
100
AcDbEntity
8
0
100
AcDbPolyline
90
8
70
1
43
0.0
10
-114.36508460000002
20
-80.514316000000036
42
-0.41421356237309503
10
-114.86508460000003
20
-81.014316000000051
10
-127.8650846
20
-81.014316000000051
42
-0.41421356237309503
10
-128.36508460000002
20
-80.514316000000036
10
-128.36508460000002
20
-67.514316000000036
42
-0.41421356237310542
10
-127.8650846
20
-67.014316000000036
10
-114.86508460000003
20
-67.014316000000022
42
-0.41421356237310025
10
-114.36508460000002
20
-67.514316000000036
0
LWPOLYLINE
5
154
100
AcDbEntity
8
0
100
AcDbPolyline
90
8
70
1
43
0.0
10
-123.89008460000002
20
-99.564316000000034
42
-0.41421356237307422
10
-124.39008460000004
20
-100.06431600000005
10
-137.39008460000002
20
-100.06431600000005
42
-0.41421356237307422
10
-137.89008460000002
20
-99.564316000000034
10
-137.89008460000002
20
-86.564316000000048
42
-0.41421356237309503
10
-137.39008460000002
20
-86.064316000000048
10
-124.39008460000004
20
-86.064316000000048
42
-0.41421356237309503
10
-123.89008460000002
20
-86.564316000000048
0
LWPOLYLINE
5
155
100
AcDbEntity
8
0
100
AcDbPolyline
90
8
70
1
43
0.0
10
-57.21508460000004
20
-80.514316000000036
42
-0.41421356237310542
10
-57.715084600000033
20
-81.014316000000051
10
-70.71508460000004
20
-81.014316000000051
42
-0.41421356237310542
10
-71.21508460000004
20
-80.514316000000036
10
-71.21508460000004
20
-67.514316000000036
42
-0.41421356237310542
10
-70.71508460000004
20
-67.014316000000036
10
-57.715084600000033
20
-67.014316000000036
42
-0.41421356237310542
10
-57.215084600000033
20
-67.514316000000036
0
LWPOLYLINE
5
156
100
AcDbEntity
8
0
100
AcDbPolyline
90
8
70
1
43
0.0
10
-28.640084600000009
20
-99.564316000000034
42
-0.41421356237307422
10
-29.140084600000016
20
-100.06431600000005
10
-42.140084600000023
20
-100.06431600000002
42
-0.41421356237310542
10
-42.640084600000023
20
-99.564316000000034
10
-42.640084600000009
20
-86.564316000000048
42
-0.41421356237310542
10
-42.140084600000023
20
-86.064316000000048
10
-29.140084600000016
20
-86.064316000000048
42
-0.41421356237310542
10
-28.640084600000016
20
-86.564316000000048
0
LWPOLYLINE
5
157
100
AcDbEntity
8
0
100
AcDbPolyline
90
8
70
1
43
0.0
10
-295.34008460000001
20
-23.364316000000045
42
-0.41421356237304563
10
-295.84008460000001
20
-23.864316000000045
10
-308.84008460000001
20
-23.864316000000045
42
-0.41421356237313145
10
-309.34008460000001
20
-23.364316000000045
10
-309.34008460000001
20
-10.364316000000038
42
-0.41421356237313534
10
-308.84008460000001
20
-9.8643160000000307
10
-295.84008460000001
20
-9.8643160000000503
42
-0.41421356237312495
10
-295.34008460000001
20
-10.364316000000038
0
LWPOLYLINE
5
158
100
AcDbEntity
8
0
100
AcDbPolyline
90
8
70
1
43
0.0
10
-247.71508460000007
20
-80.514316000000036
42
-0.4142135623730222
10
-248.21508460000004
20
-81.014316000000051
10
-261.21508460000007
20
-81.014316000000051
42
-0.41421356237313667
10
-261.71508460000007
20
-80.514316000000036
10
-261.71508460000007
20
-67.514316000000036
42
-0.41421356237307422
10
-261.21508460000007
20
-67.014316000000036
10
-248.21508460000004
20
-67.014316000000051
42
-0.41421356237312623
10
-247.71508460000004
20
-67.514316000000036
0
LWPOLYLINE
5
159
100
AcDbEntity
8
0
100
AcDbPolyline
90
8
70
1
43
0.0
10
-66.740084599999989
20
-99.564316000000034
42
-0.41421356237307422
10
-67.240084600000003
20
-100.06431600000005
10
-80.240084600000017
20
-100.06431600000002
42
-0.41421356237310542
10
-80.740084600000017
20
-99.564316000000034
10
-80.740084600000017
20
-86.564316000000048
42
-0.41421356237309503
10
-80.240084600000017
20
-86.064316000000048
10
-67.240084600000003
20
-86.064316000000048
42
-0.41421356237310542
10
-66.740084600000003
20
-86.564316000000048
0
LWPOLYLINE
5
160
100
AcDbEntity
8
0
100
AcDbPolyline
90
8
70
1
43
0.0
10
-200.09008460000004
20
-99.564316000000034
42
-0.41421356237309503
10
-200.59008460000004
20
-100.06431600000005
10
-213.59008460000007
20
-100.06431600000002
42
-0.4142135623730846
10
-214.09008460000007
20
-99.564316000000034
10
-214.09008460000001
20
-86.564316000000048
42
-0.41421356237310542
10
-213.59008460000007
20
-86.064316000000048
10
-200.59008460000004
20
-86.064316000000048
42
-0.41421356237313667
10
-200.09008460000004
20
-86.564316000000048
0
LWPOLYLINE
5
161
100
AcDbEntity
8
0
100
AcDbPolyline
90
8
70
1
43
0.0
10
-94.527584600000054
20
-61.964316000000046
42
-0.41421356237310025
10
-95.027584600000068
20
-61.464316000000032
10
-95.027584600000068
20
-48.464316000000025
42
-0.41421356237310542
10
-94.527584600000054
20
-47.964316000000025
10
-81.527584600000012
20
-47.964316000000039
42
-0.41421356237310542
10
-81.027584600000012
20
-48.464316000000025
10
-81.027584600000012
20
-61.464316000000032
42
-0.41421356237310542
10
-81.527584600000012
20
-61.964316000000032
0
LWPOLYLINE
5
162
100
AcDbEntity
8
0
100
AcDbPolyline
90
8
70
1
43
0.0
10
-295.34008460000001
20
-80.514316000000036
42
-0.4142135623730222
10
-295.84008460000001
20
-81.014316000000051
10
-308.84008460000001
20
-81.014316000000051
42
-0.41421356237313667
10
-309.34008460000001
20
-80.514316000000036
10
-309.34008460000007
20
-67.514316000000036
42
-0.41421356237307422
10
-308.84008460000001
20
-67.014316000000036
10
-295.84008460000001
20
-67.014316000000051
42
-0.41421356237312623
10
-295.34008460000001
20
-67.514316000000036
0
LWPOLYLINE
5
163
100
AcDbEntity
8
0
100
AcDbPolyline
90
8
70
1
43
0.0
10
-204.85258460000006
20
-42.414316000000056
42
-0.4142135623730222
10
-205.3525846
20
-42.914316000000056
10
-218.35258460000003
20
-42.914316000000063
42
-0.41421356237313667
10
-218.85258460000003
20
-42.414316000000056
10
-218.85258460000006
20
-29.414316000000049
42
-0.41421356237307683
10
-218.35258460000003
20
-28.914316000000049
10
-205.3525846
20
-28.914316000000035
42
-0.41421356237310025
10
-204.8525846
20
-29.414316000000049
0
LWPOLYLINE
5
164
100
AcDbEntity
8
0
100
AcDbPolyline
90
8
70
1
43
0.0
10
-35.78383460000002
20
-23.364316000000045
42
-0.41421356237309503
10
-36.28383460000002
20
-23.864316000000045
10
-49.283834600000027
20
-23.864316000000048
42
-0.41421356237309764
10
-49.783834600000027
20
-23.364316000000045
10
-49.783834600000034
20
-10.364316000000038
42
-0.41421356237310542
10
-49.283834600000027
20
-9.8643160000000307
10
-36.28383460000002
20
-9.8643160000000378
42
-0.41421356237309631
10
-35.78383460000002
20
-10.364316000000038
0
LWPOLYLINE
5
165
100
AcDbEntity
8
0
100
AcDbPolyline
90
8
70
1
43
0.0
10
-42.927584600000024
20
-61.464316000000032
42
-0.41421356237310542
10
-43.427584600000024
20
-61.964316000000032
10
-56.427584600000031
20
-61.964316000000032
42
-0.41421356237310542
10
-56.927584600000031
20
-61.464316000000032
10
-56.927584600000031
20
-48.464316000000025
42
-0.41421356237310542
10
-56.427584600000031
20
-47.964316000000025
10
-43.427584600000024
20
-47.964316000000025
42
-0.41421356237310542
10
-42.927584600000024
20
-48.464316000000025
0
LWPOLYLINE
5
166
100
AcDbEntity
8
0
100
AcDbPolyline
90
8
70
1
43
0.0
10
-51.665084600000029
20
-81.014316000000051
42
-0.41421356237310542
10
-52.165084600000029
20
-80.514316000000036
10
-52.165084600000029
20
-67.514316000000036
42
-0.41421356237310542
10
-51.665084600000029
20
-67.014316000000036
10
-38.665084600000021
20
-67.014316000000051
42
-0.41421356237309764
10
-38.165084600000021
20
-67.514316000000036
10
-38.165084600000029
20
-80.514316000000036
42
-0.41421356237310542
10
-38.665084600000021
20
-81.014316000000051
0
LWPOLYLINE
5
167
100
AcDbEntity
8
0
100
AcDbPolyline
90
8
70
1
43
0.0
10
-85.7900846
20
-99.564316000000034
10
-85.7900846
20
-86.564316000000048
42
0.41421356237309503
10
-86.290084600000014
20
-86.064316000000048
10
-99.290084600000029
20
-86.064316000000048
42
0.41421356237309503
10
-99.790084600000029
20
-86.564316000000048
10
-99.790084600000029
20
-99.564316000000034
42
0.41421356237307422
10
-99.290084600000029
20
-100.06431600000005
10
-86.290084600000014
20
-100.06431600000005
42
0.41421356237307422
0
LWPOLYLINE
5
168
100
AcDbEntity
8
0
100
AcDbPolyline
90
8
70
1
43
0.0
10
-276.29008460000006
20
-23.364316000000045
42
-0.41421356237304563
10
-276.79008460000006
20
-23.864316000000045
10
-289.79008460000006
20
-23.864316000000045
42
-0.41421356237313145
10
-290.29008460000006
20
-23.364316000000045
10
-290.29008460000006
20
-10.364316000000038
42
-0.41421356237313534
10
-289.79008460000006
20
-9.8643160000000307
10
-276.79008460000006
20
-9.8643160000000503
42
-0.41421356237312495
10
-276.29008460000006
20
-10.364316000000038
0
LWPOLYLINE
5
169
100
AcDbEntity
8
0
100
AcDbPolyline
90
8
70
1
43
0.0
10
-13.058334600000027
20
-41.414316000000042
42
-0.41421356237309764
10
-13.55833460000003
20
-41.914316000000042
10
-19.558334600000009
20
-41.914316000000028
42
-0.41421356237309764
10
-20.058334600000009
20
-41.414316000000042
10
-20.058334600000009
20
-27.414316000000056
42
-0.41421356237309631
10
-19.558334600000009
20
-26.914316000000056
10
-13.55833460000003
20
-26.914316000000056
42
-0.41421356237309503
10
-13.05833460000003
20
-27.414316000000056
0
LWPOLYLINE
5
170
100
AcDbEntity
8
0
100
AcDbPolyline
90
8
70
1
43
0.0
10
-226.28383459999998
20
-23.364316000000045
42
-0.41421356237307683
10
-226.78383460000003
20
-23.864316000000045
10
-239.78383460000003
20
-23.864316000000059
42
-0.41421356237310025
10
-240.28383460000003
20
-23.364316000000045
10
-240.28383460000009
20
-10.364316000000038
42
-0.41421356237312495
10
-239.78383460000003
20
-9.8643160000000307
10
-226.78383460000003
20
-9.8643160000000325
42
-0.41421356237313534
10
-226.28383460000003
20
-10.364316000000038
0
LWPOLYLINE
5
171
100
AcDbEntity
8
0
100
AcDbPolyline
90
8
70
1
43
0.0
10
-195.32758459999999
20
-61.464316000000032
10
-195.32758459999999
20
-48.464316000000025
42
0.41421356237312623
10
-195.82758460000002
20
-47.964316000000018
10
-208.82758460000002
20
-47.964316000000025
42
0.41421356237307422
10
-209.32758460000002
20
-48.464316000000025
10
-209.32758460000002
20
-61.464316000000032
42
0.41421356237313667
10
-208.82758460000002
20
-61.964316000000039
10
-195.82758460000002
20
-61.964316000000032
42
0.4142135623730222
0
LWPOLYLINE
5
172
100
AcDbEntity
8
0
100
AcDbPolyline
90
8
70
1
43
0.0
10
-228.66508460000006
20
-80.514316000000036
42
-0.4142135623730222
10
-229.16508460000003
20
-81.014316000000051
10
-242.16508460000003
20
-81.014316000000051
42
-0.41421356237313667
10
-242.66508460000006
20
-80.514316000000036
10
-242.66508460000009
20
-67.514316000000036
42
-0.41421356237307422
10
-242.16508460000003
20
-67.014316000000036
10
-229.16508460000003
20
-67.014316000000051
42
-0.41421356237312623
10
-228.66508460000003
20
-67.514316000000036
0
LWPOLYLINE
5
173
100
AcDbEntity
8
0
100
AcDbPolyline
90
8
70
1
43
0.0
10
-90.552584600000017
20
-42.414316000000056
42
-0.41421356237310542
10
-91.052584600000017
20
-42.914316000000056
10
-104.05258460000002
20
-42.914316000000071
42
-0.41421356237310025
10
-104.55258460000003
20
-42.414316000000056
10
-104.55258460000003
20
-29.414316000000049
42
-0.41421356237310542
10
-104.05258460000002
20
-28.914316000000049
10
-91.052584600000017
20
-28.914316000000046
42
-0.41421356237309243
10
-90.552584600000017
20
-29.414316000000049
0
LWPOLYLINE
5
174
100
AcDbEntity
8
0
100
AcDbPolyline
90
8
70
1
43
0.0
10
-30.233834600000016
20
-61.964316000000025
42
-0.41421356237309764
10
-30.733834600000016
20
-61.464316000000032
10
-30.733834600000019
20
-48.464316000000025
42
-0.41421356237309764
10
-30.233834600000016
20
-47.964316000000025
10
-17.233834600000009
20
-47.964316000000025
42
-0.41421356237309631
10
-16.733834600000009
20
-48.464316000000025
10
-16.733834600000005
20
-61.464316000000032
42
-0.41421356237309764
10
-17.233834600000009
20
-61.964316000000032
0
LWPOLYLINE
5
175
100
AcDbEntity
8
0
100
AcDbPolyline
90
8
70
1
43
0.0
10
-36.934334600000021
20
-41.414316000000042
42
-0.41421356237309764
10
-37.434334600000021
20
-41.914316000000042
10
-43.434334600000035
20
-41.914316000000042
42
-0.41421356237310542
10
-43.934334600000035
20
-41.414316000000042
10
-43.934334600000028
20
-27.414316000000056
42
-0.41421356237309764
10
-43.434334600000035
20
-26.914316000000056
10
-37.434334600000021
20
-26.914316000000056
42
-0.41421356237309503
10
-36.934334600000021
20
-27.414316000000056
0
LWPOLYLINE
5
176
100
AcDbEntity
8
0
100
AcDbPolyline
90
8
70
1
43
0.0
10
-146.9150846
20
-81.014316000000051
42
-0.41421356237309503
10
-147.41508460000003
20
-80.514316000000036
10
-147.41508460000003
20
-67.514316000000036
42
-0.41421356237310542
10
-146.9150846
20
-67.014316000000036
10
-133.91508460000006
20
-67.014316000000022
42
-0.41421356237310025
10
-133.41508460000003
20
-67.514316000000036
10
-133.41508460000003
20
-80.514316000000036
42
-0.41421356237309503
10
-133.91508460000006
20
-81.014316000000051
0
LWPOLYLINE
5
177
100
AcDbEntity
8
0
100
AcDbPolyline
90
8
70
1
43
0.0
10
-138.17758460000005
20
-61.464316000000032
42
-0.41421356237310542
10
-138.67758460000005
20
-61.964316000000032
10
-151.67758460000002
20
-61.964316000000046
42
-0.41421356237310025
10
-152.17758460000002
20
-61.464316000000032
10
-152.17758460000002
20
-48.464316000000025
42
-0.41421356237310542
10
-151.67758460000002
20
-47.964316000000025
10
-138.67758460000005
20
-47.964316000000011
42
-0.41421356237310025
10
-138.17758460000005
20
-48.464316000000025
0
LWPOLYLINE
5
178
100
AcDbEntity
8
0
100
AcDbPolyline
90
8
70
1
43
0.0
10
-266.76508460000002
20
-99.564316000000034
42
-0.41421356237309503
10
-267.26508460000002
20
-100.06431600000005
10
-280.26508460000002
20
-100.06431600000002
42
-0.4142135623730846
10
-280.76508460000002
20
-99.564316000000034
10
-280.76508460000002
20
-86.564316000000048
42
-0.41421356237310542
10
-280.26508460000002
20
-86.064316000000048
10
-267.26508460000002
20
-86.064316000000048
42
-0.41421356237313667
10
-266.76508460000002
20
-86.564316000000048
0
LWPOLYLINE
5
179
100
AcDbEntity
8
0
100
AcDbPolyline
90
8
70
1
43
0.0
10
-95.315084600000006
20
-80.514316000000036
42
-0.41421356237309503
10
-95.81508460000002
20
-81.014316000000051
10
-108.81508460000003
20
-81.014316000000051
42
-0.41421356237309503
10
-109.31508460000003
20
-80.514316000000036
10
-109.31508460000003
20
-67.514316000000036
42
-0.41421356237310542
10
-108.81508460000003
20
-67.014316000000036
10
-95.81508460000002
20
-67.014316000000022
42
-0.41421356237310025
10
-95.315084600000006
20
-67.514316000000036
0
LWPOLYLINE
5
180
100
AcDbEntity
8
0
100
AcDbPolyline
90
8
70
1
43
0.0
10
-258.32708460000003
20
-98.564316000000048
42
-0.41421356237310542
10
-258.82708460000003
20
-99.064316000000048
10
-264.82708460000003
20
-99.064316000000062
42
-0.41421356237310542
10
-265.32708460000003
20
-98.564316000000048
10
-265.32708460000003
20
-84.564316000000048
42
-0.41421356237310542
10
-264.82708460000003
20
-84.064316000000048
10
-258.82708460000003
20
-84.064316000000034
42
-0.41421356237310542
10
-258.32708460000003
20
-84.564316000000048
0
LWPOLYLINE
5
181
100
AcDbEntity
8
0
100
AcDbPolyline
90
8
70
1
43
0.0
10
-251.69008460000003
20
-100.06431600000005
42
-0.41421356237309503
10
-252.19008460000003
20
-99.564316000000034
10
-252.19008460000003
20
-86.564316000000048
42
-0.41421356237313667
10
-251.69008460000003
20
-86.064316000000048
10
-238.69008460000003
20
-86.064316000000019
42
-0.41421356237310542
10
-238.19008460000003
20
-86.564316000000048
10
-238.19008459999998
20
-99.564316000000034
42
-0.4142135623730846
10
-238.69008460000003
20
-100.06431600000005
0
LWPOLYLINE
5
182
100
AcDbEntity
8
0
100
AcDbPolyline
90
8
70
1
43
0.0
10
-315.89608459999999
20
-109.61931600000001
42
-0.41421356237309681
10
-318.89608460000005
20
-106.61931600000003
10
-318.89608460000005
20
-3.3693160000000351
42
-0.41421356237309481
10
-315.89608460000005
20
-0.36931600000002618
10
-3.0950846000000007
20
-0.3693160000000173
42
-0.41421356237309587
10
-0.095084599999992747
20
-3.3693160000000333
10
-0.095084599999990527
20
-106.61931600000003
42
-0.41421356237309176
10
-3.0950845999999999
20
-109.61931600000003
0
ENDSEC
0
SECTION
2
OBJECTS
0
DICTIONARY
5
C
100
AcDbDictionary
3
ACAD_GROUP
350
D
3
ACAD_MLINESTYLE
350
17
0
DICTIONARY
5
D
100
AcDbDictionary
0
DICTIONARY
5
1A
330
C
100
AcDbDictionary
0
DICTIONARY
5
17
100
AcDbDictionary
0
ENDSEC
0
EOF
