0
SECTION
2
HEADER
9
$INSUNITS
70
4
9
$ACADVER
1
AC1014
9
$HANDSEED
5
FFFF
0
ENDSEC
0
SECTION
2
TABLES
0
TABLE
2
VPORT
5
8
100
AcDbSymbolTable
0
ENDTAB
0
TABLE
2
LTYPE
5
5
100
AcDbSymbolTable
0
LTYPE
5
14
100
AcDbSymbolTableRecord
100
AcDbLinetypeTableRecord
2
BYBLOCK
70
0
0
LTYPE
5
15
100
AcDbSymbolTableRecord
100
AcDbLinetypeTableRecord
2
BYLAYER
70
0
0
ENDTAB
0
TABLE
2
LAYER
5
2
100
AcDbSymbolTable
70
2
0
LAYER
5
50
100
AcDbSymbolTableRecord
100
AcDbLayerTableRecord
2
0
70
0
6
CONTINUOUS
0
ENDTAB
0
TABLE
2
STYLE
5
3
100
AcDbSymbolTable
70
1
0
STYLE
5
11
100
AcDbSymbolTableRecord
100
AcDbTextStyleTableRecord
2
STANDARD
70
0
0
ENDTAB
0
TABLE
2
VIEW
5
6
100
AcDbSymbolTable
70
0
0
ENDTAB
0
TABLE
2
UCS
5
7
100
AcDbSymbolTable
70
0
0
ENDTAB
0
TABLE
2
APPID
5
9
100
AcDbSymbolTable
70
2
0
APPID
5
12
100
AcDbSymbolTableRecord
100
AcDbRegAppTableRecord
2
ACAD
70
0
0
ENDTAB
0
TABLE
2
DIMSTYLE
5
A
100
AcDbSymbolTable
70
1
0
ENDTAB
0
TABLE
2
BLOCK_RECORD
5
1
100
AcDbSymbolTable
70
1
0
BLOCK_RECORD
5
1F
100
AcDbSymbolTableRecord
100
AcDbBlockTableRecord
2
*MODEL_SPACE
0
BLOCK_RECORD
5
1B
100
AcDbSymbolTableRecord
100
AcDbBlockTableRecord
2
*PAPER_SPACE
0
ENDTAB
0
ENDSEC
0
SECTION
2
BLOCKS
0
BLOCK
5
20
100
AcDbEntity
100
AcDbBlockBegin
2
*MODEL_SPACE
0
ENDBLK
5
21
100
AcDbEntity
100
AcDbBlockEnd
0
BLOCK
5
1C
100
AcDbEntity
100
AcDbBlockBegin
2
*PAPER_SPACE
0
ENDBLK
5
1D
100
AcDbEntity
100
AcDbBlockEnd
0
ENDSEC
0
SECTION
2
ENTITIES
0
LWPOLYLINE
5
100
100
AcDbEntity
8
0
100
AcDbPolyline
90
20
70
1
43
0.0
10
-245.42000000000002
20
-24.918400000000016
42
-0.41421356237310025
10
-246.92000000000002
20
-26.418400000000016
10
-253.04400000000004
20
-26.418400000000027
42
-0.41421356237311413
10
-254.54400000000004
20
-24.918400000000016
10
-254.54400000000004
20
-8.8697400000000393
42
0.41421356237309592
10
-256.04400000000004
20
-7.3697400000000357
10
-310.39499999999998
20
-7.3697400000000393
42
0.41421356237309503
10
-311.89499999999998
20
-8.8697400000000393
10
-311.89499999999998
20
-82.269900000000021
42
0.41421356237309503
10
-310.39499999999998
20
-83.769900000000035
10
-294.54500000000002
20
-83.769900000000007
42
-0.41421356237310197
10
-293.04500000000007
20
-85.269900000000035
10
-293.04500000000007
20
-101.12000000000002
42
0.41421356237309503
10
-291.54500000000007
20
-102.62
10
-8.5941499999999849
20
-102.62
42
0.41421356237309204
10
-7.0941499999999991
20
-101.12
10
-7.0941500000000026
20
-8.8697400000000393
42
0.41421356237309936
10
-8.5941500000000204
20
-7.3697400000000357
10
-243.92000000000002
20
-7.3697400000000348
42
0.41421356237309592
10
-245.42000000000002
20
-8.8697400000000393
0
LWPOLYLINE
5
101
100
AcDbEntity
8
0
100
AcDbPolyline
90
8
70
1
43
0.0
10
-3.0950846000000003
20
-0.36931600000002396
42
-0.41421356237309609
10
-0.095084599999999964
20
-3.3693160000000333
10
-0.09508460000000718
20
-106.619
42
-0.41421356237309365
10
-3.0950845999999999
20
-109.619
10
-315.89599999999996
20
-109.619
42
-0.41421356237308815
10
-318.89599999999996
20
-106.619
10
-318.89599999999996
20
-3.3693160000000333
42
-0.41421356237308909
10
-315.89599999999996
20
-0.36931600000002618
0
CIRCLE
5
102
100
AcDbEntity
8
0
100
AcDbCircle
10
-311.89499999999998
20
-3.8697400000000353
30
0
40
1.1000000000000001
210
0
220
0
230
1
0
CIRCLE
5
103
100
AcDbEntity
8
0
100
AcDbCircle
10
-210.89499999999998
20
-3.8697400000000353
30
0
40
1.1000000000000001
210
0
220
0
230
1
0
CIRCLE
5
104
100
AcDbEntity
8
0
100
AcDbCircle
10
-7.0941499999999991
20
-3.8697400000000353
30
0
40
1.1000000000000001
210
0
220
0
230
1
0
CIRCLE
5
105
100
AcDbEntity
8
0
100
AcDbCircle
10
-109.89499999999995
20
-106.12
30
0
40
1.1000000000000001
210
0
220
0
230
1
0
CIRCLE
5
106
100
AcDbEntity
8
0
100
AcDbCircle
10
-7.09415
20
-106.12
30
0
40
1.1000000000000001
210
0
220
0
230
1
0
CIRCLE
5
107
100
AcDbEntity
8
0
100
AcDbCircle
10
-109.89499999999995
20
-3.8697400000000353
30
0
40
1.1000000000000001
210
0
220
0
230
1
0
CIRCLE
5
108
100
AcDbEntity
8
0
100
AcDbCircle
10
-210.89499999999998
20
-106.12
30
0
40
1.1000000000000001
210
0
220
0
230
1
0
CIRCLE
5
109
100
AcDbEntity
8
0
100
AcDbCircle
10
-311.89499999999998
20
-106.12
30
0
40
1.1000000000000001
210
0
220
0
230
1
0
ENDSEC
0
SECTION
2
OBJECTS
0
DICTIONARY
5
C
100
AcDbDictionary
3
ACAD_GROUP
350
D
3
ACAD_MLINESTYLE
350
17
0
DICTIONARY
5
D
100
AcDbDictionary
0
DICTIONARY
5
1A
330
C
100
AcDbDictionary
0
DICTIONARY
5
17
100
AcDbDictionary
0
ENDSEC
0
EOF
